#N canvas 748 413 1348 621 12;
#X obj 463 465 dac~;
#X floatatom 852 251 8 0 0 0 - - -;
#X obj 852 120 vsl 15 128 20 20000 1 1 empty empty empty 0 -9 0 10
-4032 -1 -1 9212 1;
#X msg 514 270 freq \$1;
#X obj 260 139 bng 30 250 50 0 empty empty empty 17 7 0 10 -262144
-1 -1;
#X obj 391 191 t b b;
#X msg 391 214 1;
#X msg 307 195 0, f 4;
#X obj 352 465 writesf~ 2;
#X msg 193 373 open -bytes 4 audiofiles/result.wav, f 13;
#X obj 193 332 bng 30 250 50 0 empty empty empty 17 7 0 10 -262144
-1 -1;
#X obj 425 343 phase_shaper~;
#X floatatom 647 225 5 1 300 0 - - -;
#X floatatom 799 477 6 0 0 0 - - -;
#X obj 799 346 vsl 15 128 0.025 40 1 0 empty empty empty 0 -9 0 10
-4032 -1 -1 7850 1;
#X msg 514 245 filtercount \$1;
#X msg 876 166 120;
#X floatatom 648 474 6 0 0 0 - - -;
#X obj 648 343 vsl 15 128 0.01 1 0 0 empty empty empty 0 -9 0 10 -4032
-1 -1 0 1;
#X text 254 115 Start;
#X text 302 114 Stop;
#X text 792 315 Q-Factor;
#X msg 824 386 1;
#X msg 514 293 q \$1;
#X msg 667 366 0.5;
#X floatatom 207 272 6 0 0 0 - - -;
#X obj 188 146 vsl 15 128 0.01 1 0 1 empty empty empty 0 -9 0 10 -4032
-1 -1 12700 1;
#X msg 216 169 0.5;
#X obj 425 414 *~;
#X obj 514 416 *~;
#X text 626 318 Dry-Wet Mix;
#X msg 514 314 mix \$1;
#X obj 430 247 readsf~ 2, f 11;
#X msg 259 227 start;
#X msg 309 225 stop;
#X msg 874 118 3000;
#X msg 825 410 0.0625;
#X msg 682 197 30;
#X msg 718 197 150;
#X msg 647 198 10;
#X msg 668 341 1;
#X msg 216 145 1;
#X msg 823 345 32;
#X msg 875 191 80;
#X msg 875 141 500;
#X msg 1021 538 2;
#X obj 1104 557 random 9;
#X obj 1060 557 - 5;
#X obj 1021 558 pow;
#X obj 1064 474 tgl 20 0 empty empty empty 17 7 0 10 -262144 -1 -1
1 1;
#X obj 1178 499 /;
#X msg 1178 480 1 \$1;
#X msg 1128 425 1;
#X msg 1203 424 4;
#X msg 1164 424 2;
#X obj 1079 297 pow;
#X obj 1043 297 *;
#X msg 1043 273 4;
#X obj 1112 296 random 9;
#X obj 1076 172 tgl 20 0 empty empty empty 17 7 0 10 -262144 -1 -1
1 1;
#X obj 1233 235 /;
#X msg 1233 217 1 \$1;
#X msg 1145 175 1;
#X msg 1212 174 4;
#X msg 1179 174 2;
#X msg 1079 273 2;
#X obj 852 268 +;
#X text 182 312 Arm Record;
#X text 269 26 PLAYBACK;
#X obj 306 139 bng 30 250 50 0 empty empty empty 17 7 0 10 -262144
-1 -1;
#X msg 668 393 0;
#X msg 217 194 0;
#X text 747 29 PARAMETERS;
#X text 178 117 Gain;
#X text 627 171 Allpass Filter Count;
#X text 686 224 <--try me;
#X text 1061 105 Frequency Modulation;
#X text 1068 155 On/Off;
#X text 1148 150 Beat Divisor;
#X text 1036 361 Q-Factor Modulation;
#X text 1048 445 On/Off;
#X text 1132 402 Beat Divisor;
#X text 842 90 Frequency;
#X obj 965 370 vsl 15 128 0.02 2 0 1 empty empty empty 0 -9 0 10 -4032
-1 -1 2800 1;
#X floatatom 965 501 8 0 0 0 - - -;
#X obj 966 539 *;
#X text 943 346 Strength;
#X msg 437 192 open audiofiles/breakbeat_44kHz.wav, f 18;
#X obj 390 169 metro 5647;
#X text 474 160 This is a 44kHz audiofile!, f 17;
#X obj 1111 255 metro 1 170 permin;
#X obj 1054 519 metro 1 170 permin;
#X msg 824 365 8;
#X text 6 25 PRESETS;
#X obj 948 558 +;
#X msg 1000 296 0;
#X obj 968 296 +;
#X msg 999 272 180;
#X msg 989 558 0;
#X obj 815 461 bng 15 250 50 0 empty empty empty 17 7 0 10 -262144
-1 -1;
#X text 752 195 <--may cause feedback!!, f 12;
#X obj 969 122 vsl 15 128 0.02 2 0 1 empty empty empty 0 -9 0 10 -4032
-1 -1 12700 1;
#X floatatom 969 253 8 0 0 0 - - -;
#X obj 969 272 *;
#X text 948 94 Strength;
#X obj 868 236 bng 15 250 50 0 empty empty empty 17 7 0 10 -262144
-1 -1;
#X text 6 53 Space Wars: Frequency: 3000 Q: play around! FilterCount:
150 Dry-Wet: 1 FrqMod: On FrqMod Divisor: 4 FrqMod Strength: 2 QMod:
On QMod Divisor: 4 QMod Strength: 0.5, f 19;
#X text 8 238 Punchy Kick: Frequency: 120 Q: 8 FilterCount: 30 Dry-Wet:
1, f 16;
#X text 7 338 Epic Filler: Frequency: 80 Q: 32 FilterCount: 10 Dry-Wet:
raise slowly from 0 to 1, f 16;
#X connect 1 0 3 0;
#X connect 2 0 66 0;
#X connect 3 0 11 0;
#X connect 4 0 33 0;
#X connect 4 0 88 0;
#X connect 5 0 6 0;
#X connect 5 1 87 0;
#X connect 6 0 32 0;
#X connect 7 0 32 0;
#X connect 7 0 34 0;
#X connect 7 0 88 0;
#X connect 9 0 8 0;
#X connect 10 0 9 0;
#X connect 11 0 28 0;
#X connect 11 1 29 0;
#X connect 12 0 15 0;
#X connect 13 0 23 0;
#X connect 14 0 94 0;
#X connect 15 0 11 0;
#X connect 16 0 2 0;
#X connect 17 0 31 0;
#X connect 18 0 17 0;
#X connect 22 0 14 0;
#X connect 23 0 11 0;
#X connect 24 0 18 0;
#X connect 25 0 29 1;
#X connect 25 0 28 1;
#X connect 26 0 25 0;
#X connect 27 0 26 0;
#X connect 28 0 0 0;
#X connect 28 0 8 0;
#X connect 29 0 0 1;
#X connect 29 0 8 1;
#X connect 31 0 11 0;
#X connect 32 0 11 0;
#X connect 32 1 11 1;
#X connect 33 0 8 0;
#X connect 34 0 8 0;
#X connect 35 0 2 0;
#X connect 36 0 14 0;
#X connect 37 0 12 0;
#X connect 38 0 12 0;
#X connect 39 0 12 0;
#X connect 40 0 18 0;
#X connect 41 0 26 0;
#X connect 42 0 14 0;
#X connect 43 0 2 0;
#X connect 44 0 2 0;
#X connect 45 0 48 0;
#X connect 46 0 47 0;
#X connect 47 0 48 1;
#X connect 48 0 85 1;
#X connect 49 0 91 0;
#X connect 49 0 98 0;
#X connect 50 0 91 1;
#X connect 51 0 50 0;
#X connect 52 0 51 0;
#X connect 53 0 51 0;
#X connect 54 0 51 0;
#X connect 55 0 56 1;
#X connect 56 0 103 1;
#X connect 57 0 56 0;
#X connect 58 0 55 1;
#X connect 59 0 90 0;
#X connect 59 0 95 0;
#X connect 60 0 90 1;
#X connect 61 0 60 0;
#X connect 62 0 61 0;
#X connect 63 0 61 0;
#X connect 64 0 61 0;
#X connect 65 0 55 0;
#X connect 66 0 1 0;
#X connect 69 0 7 0;
#X connect 70 0 18 0;
#X connect 71 0 26 0;
#X connect 83 0 84 0;
#X connect 84 0 85 0;
#X connect 85 0 94 1;
#X connect 87 0 32 0;
#X connect 88 0 5 0;
#X connect 90 0 58 0;
#X connect 90 0 65 0;
#X connect 90 0 57 0;
#X connect 90 0 97 0;
#X connect 90 0 102 0;
#X connect 90 0 105 0;
#X connect 91 0 46 0;
#X connect 91 0 45 0;
#X connect 91 0 84 0;
#X connect 91 0 99 0;
#X connect 92 0 14 0;
#X connect 94 0 13 0;
#X connect 95 0 66 1;
#X connect 96 0 66 1;
#X connect 97 0 96 0;
#X connect 98 0 94 1;
#X connect 99 0 14 0;
#X connect 101 0 102 0;
#X connect 102 0 103 0;
#X connect 103 0 96 1;
#X connect 105 0 2 0;
#X coords 0 0 0.5 0.5 0 0 0;
