#N canvas 555 304 873 829 12;
#X obj 465 600 dac~;
#X floatatom 587 258 8 0 0 0 - - -;
#X obj 796 68 vsl 15 128 20 20000 1 0 empty empty empty 0 -9 0 10 -4032
-1 -1 2094 1;
#X msg 587 285 freq \$1;
#X obj 41 194 bng 15 250 50 0 empty empty empty 17 7 0 10 -262144 -1
-1;
#X obj 206 205 t b b;
#X msg 210 238 1;
#X msg 103 190 0, f 4;
#X obj 242 264 readsf~;
#X msg 242 238 open audiofiles/Electro_Kick20.wav;
#X msg 358 766 print;
#X msg 296 603 bang;
#X msg 246 663 start;
#X msg 296 663 stop;
#X obj 296 634 del 1000;
#X obj 359 737 writesf~ 2;
#X msg 64 714 open -bytes 4 audiofiles/result.wav;
#X obj 68 688 bng 15 250 50 0 empty empty empty 17 7 0 10 -262144 -1
-1;
#X obj 419 402 phase_shaper~;
#X floatatom 621 59 5 1 30 0 - - -;
#X floatatom 585 364 6 0 0 0 - - -;
#X obj 796 236 vsl 15 128 0.025 40 1 0 empty empty empty 0 -9 0 10
-4032 -1 -1 5100 1;
#X msg 617 95 filtercount \$1;
#X obj 208 168 metro 1000;
#X msg 756 180 120;
#X msg 735 314 0.0675;
#X floatatom 591 437 6 0 0 0 - - -;
#X obj 795 391 vsl 15 128 0 1 0 0 empty empty empty 0 -9 0 10 -4032
-1 -1 12700 1;
#X text 68 659 Record;
#X text 31 154 Start;
#X text 104 153 Stop;
#X floatatom 299 485 6 0 0 0 - - -;
#X obj 289 347 vsl 15 128 0 1 0 0 empty empty empty 0 -9 0 10 -4032
-1 -1 0 1;
#X obj 261 474 *~, f 2;
#X obj 240 475 *~, f 2;
#X msg 313 458 0;
#X text 718 64 Frequency;
#X text 725 233 Q-Factor;
#X msg 735 337 1;
#X msg 585 382 q \$1;
#X text 314 433 Dry Gain;
#X msg 756 470 0.5;
#X floatatom 589 584 6 0 0 0 - - -;
#X obj 795 558 vsl 15 128 0 1 0 0 empty empty empty 0 -9 0 10 -4032
-1 -1 5350 1;
#X msg 749 621 0.5;
#X obj 505 544 *~;
#X obj 539 546 *~;
#X text 704 387 Dry-Wet Mix;
#X text 754 535 Gain;
#X msg 591 461 mix \$1;
#X connect 1 0 3 0;
#X connect 2 0 1 0;
#X connect 3 0 18 0;
#X connect 4 0 23 0;
#X connect 4 0 11 0;
#X connect 5 0 6 0;
#X connect 5 1 9 0;
#X connect 6 0 8 0;
#X connect 7 0 8 0;
#X connect 7 0 23 0;
#X connect 8 0 18 0;
#X connect 8 0 34 0;
#X connect 8 0 33 0;
#X connect 9 0 8 0;
#X connect 10 0 15 0;
#X connect 11 0 12 0;
#X connect 11 0 14 0;
#X connect 12 0 15 0;
#X connect 13 0 15 0;
#X connect 14 0 13 0;
#X connect 16 0 15 0;
#X connect 17 0 16 0;
#X connect 18 0 15 0;
#X connect 18 0 15 1;
#X connect 18 0 45 0;
#X connect 18 0 46 0;
#X connect 19 0 22 0;
#X connect 20 0 39 0;
#X connect 21 0 20 0;
#X connect 22 0 18 0;
#X connect 23 0 5 0;
#X connect 24 0 2 0;
#X connect 25 0 21 0;
#X connect 26 0 49 0;
#X connect 27 0 26 0;
#X connect 31 0 33 1;
#X connect 31 0 34 1;
#X connect 32 0 31 0;
#X connect 33 0 0 1;
#X connect 34 0 0 0;
#X connect 35 0 31 0;
#X connect 38 0 21 0;
#X connect 39 0 18 0;
#X connect 41 0 27 0;
#X connect 42 0 46 1;
#X connect 42 0 45 1;
#X connect 43 0 42 0;
#X connect 44 0 43 0;
#X connect 45 0 0 0;
#X connect 46 0 0 1;
#X connect 49 0 18 0;
