#N canvas 507 301 1920 1104 12;
#X obj 313 106 bng 15 250 50 0 empty empty empty 17 7 0 10 -262144
-1 -1;
#X obj 314 139 t b b;
#X msg 314 168 1;
#X msg 272 169 0, f 4;
#X obj 346 194 readsf~;
#X obj 311 488 dac~;
#X floatatom 658 347 8 0 0 0 - - -;
#X obj 803 164 vsl 15 128 20 20000 1 0 empty empty empty 0 -9 0 10
-4032 -1 -1 2400 1;
#X msg 587 285 freq \$1;
#X msg 346 168 open audiofiles/cicerospeech.wav;
#X obj 80 90 bng 15 250 50 0 empty empty empty 17 7 0 10 -262144 -1
-1;
#X obj 93 234 t b b;
#X msg 97 267 1;
#X msg 15 263 0, f 4;
#X obj 129 293 readsf~;
#X msg 129 267 open audiofiles/Electro_Kick20.wav;
#X msg 656 648 print;
#X msg 386 549 bang;
#X msg 637 594 start;
#X msg 644 622 stop;
#X obj 386 590 del 1000;
#X text 681 596 start streaming audio;
#X text 683 622 stop streaming audio;
#X obj 359 737 writesf~ 2;
#X msg 629 566 open -bytes 4 audiofiles/result.wav;
#X obj 626 504 bng 15 250 50 0 empty empty empty 17 7 0 10 -262144
-1 -1;
#X obj 985 401 print;
#X obj 981 362 &&;
#X floatatom 989 302 5 0 0 0 - - -;
#X obj 935 236 bng 15 250 50 0 empty empty empty 17 7 0 10 -262144
-1 -1;
#X msg 957 302 1;
#X obj 999 238 tgl 15 0 empty empty empty 17 7 0 10 -262144 -1 -1 0
1;
#X obj 419 402 phase_shaper~;
#X floatatom 621 59 5 1 30 0 - - -;
#X floatatom 682 440 6 0 0 0 - - -;
#X obj 808 369 vsl 15 128 0.025 40 1 0 empty empty empty 0 -9 0 10
-4032 -1 -1 1700 1;
#X msg 610 379 q \$1;
#X msg 617 95 filtercount \$1;
#X obj 85 154 metro 1000;
#X msg 690 237 120;
#X msg 741 395 0.0675;
#X connect 0 0 1 0;
#X connect 1 0 2 0;
#X connect 1 1 9 0;
#X connect 2 0 4 0;
#X connect 3 0 4 0;
#X connect 4 0 32 0;
#X connect 6 0 8 0;
#X connect 7 0 6 0;
#X connect 8 0 32 0;
#X connect 9 0 4 0;
#X connect 10 0 38 0;
#X connect 10 0 17 0;
#X connect 11 0 12 0;
#X connect 11 1 15 0;
#X connect 12 0 14 0;
#X connect 13 0 14 0;
#X connect 13 0 38 0;
#X connect 14 0 32 0;
#X connect 15 0 14 0;
#X connect 16 0 23 0;
#X connect 17 0 18 0;
#X connect 17 0 20 0;
#X connect 18 0 23 0;
#X connect 19 0 23 0;
#X connect 20 0 19 0;
#X connect 24 0 23 0;
#X connect 25 0 24 0;
#X connect 27 0 26 0;
#X connect 28 0 27 1;
#X connect 29 0 30 0;
#X connect 30 0 27 0;
#X connect 31 0 28 0;
#X connect 32 0 23 0;
#X connect 32 0 23 1;
#X connect 32 0 5 0;
#X connect 32 0 5 1;
#X connect 33 0 37 0;
#X connect 34 0 36 0;
#X connect 35 0 34 0;
#X connect 36 0 32 0;
#X connect 37 0 32 0;
#X connect 38 0 11 0;
#X connect 39 0 6 0;
#X connect 40 0 34 0;
