#N canvas 989 217 988 848 12;
#X obj 440 737 dac~;
#X floatatom 587 258 8 0 0 0 - - -;
#X obj 796 68 vsl 15 128 20 20000 1 0 empty empty empty 0 -9 0 10 -4032
-1 -1 3294 1;
#X msg 587 285 freq \$1;
#X obj 41 194 bng 15 250 50 0 empty empty empty 17 7 0 10 -262144 -1
-1;
#X obj 206 205 t b b;
#X msg 210 238 1;
#X msg 105 180 0, f 4;
#X msg 358 766 print;
#X obj 359 737 writesf~ 2;
#X msg 64 714 open -bytes 4 audiofiles/result.wav;
#X obj 68 689 bng 15 250 50 0 empty empty empty 17 7 0 10 -262144 -1
-1;
#X obj 406 556 phase_shaper~;
#X floatatom 481 169 5 1 300 0 - - -;
#X floatatom 585 364 6 0 0 0 - - -;
#X obj 796 236 vsl 15 128 0.025 40 1 0 empty empty empty 0 -9 0 10
-4032 -1 -1 6350 1;
#X msg 473 286 filtercount \$1;
#X msg 824 115 120;
#X floatatom 591 437 6 0 0 0 - - -;
#X obj 796 391 vsl 15 128 0 1 0 0 empty empty empty 0 -9 0 10 -4032
-1 -1 12700 1;
#X text 68 659 Record;
#X text 31 154 Start;
#X text 104 153 Stop;
#X floatatom 299 485 6 0 0 0 - - -;
#X obj 289 347 vsl 15 128 0 1 0 0 empty empty empty 0 -9 0 10 -4032
-1 -1 0 1;
#X obj 261 474 *~, f 2;
#X obj 240 475 *~, f 2;
#X msg 313 458 0;
#X text 718 64 Frequency;
#X text 725 233 Q-Factor;
#X msg 821 256 1;
#X msg 585 382 q \$1;
#X text 314 433 Dry Gain;
#X msg 822 415 0.5;
#X floatatom 586 701 6 0 0 0 - - -;
#X obj 795 558 vsl 15 128 0 1 0 0 empty empty empty 0 -9 0 10 -4032
-1 -1 12700 1;
#X msg 829 580 0.5;
#X obj 440 668 *~;
#X obj 466 667 *~;
#X text 704 387 Dry-Wet Mix;
#X text 754 535 Gain;
#X msg 591 461 mix \$1;
#X obj 242 264 readsf~ 2, f 31;
#X msg 213 656 start;
#X msg 268 658 stop;
#X msg 821 67 3000;
#X msg 822 280 0.0625;
#X msg 243 238 open audiofiles/breakbeat48.wav;
#X msg 487 135 30;
#X msg 526 135 150;
#X msg 450 136 10;
#X msg 823 390 1;
#X msg 829 556 1;
#X msg 821 231 32;
#X msg 823 140 80;
#X msg 823 90 500;
#X connect 1 0 3 0;
#X connect 2 0 1 0;
#X connect 3 0 12 0;
#X connect 4 0 5 0;
#X connect 4 0 43 0;
#X connect 5 0 6 0;
#X connect 5 1 47 0;
#X connect 6 0 42 0;
#X connect 7 0 42 0;
#X connect 7 0 44 0;
#X connect 8 0 9 0;
#X connect 10 0 9 0;
#X connect 11 0 10 0;
#X connect 12 0 38 0;
#X connect 12 0 9 0;
#X connect 12 1 37 0;
#X connect 12 1 9 1;
#X connect 13 0 16 0;
#X connect 14 0 31 0;
#X connect 15 0 14 0;
#X connect 16 0 12 0;
#X connect 17 0 2 0;
#X connect 18 0 41 0;
#X connect 19 0 18 0;
#X connect 23 0 25 1;
#X connect 23 0 26 1;
#X connect 24 0 23 0;
#X connect 25 0 0 1;
#X connect 25 0 9 1;
#X connect 26 0 0 0;
#X connect 26 0 9 0;
#X connect 27 0 23 0;
#X connect 30 0 15 0;
#X connect 31 0 12 0;
#X connect 33 0 19 0;
#X connect 34 0 38 1;
#X connect 34 0 37 1;
#X connect 35 0 34 0;
#X connect 36 0 35 0;
#X connect 37 0 0 0;
#X connect 38 0 0 1;
#X connect 41 0 12 0;
#X connect 42 0 12 0;
#X connect 42 0 26 0;
#X connect 42 1 25 0;
#X connect 42 1 12 1;
#X connect 43 0 9 0;
#X connect 44 0 9 0;
#X connect 45 0 2 0;
#X connect 46 0 15 0;
#X connect 47 0 42 0;
#X connect 48 0 13 0;
#X connect 49 0 13 0;
#X connect 50 0 13 0;
#X connect 51 0 19 0;
#X connect 52 0 35 0;
#X connect 53 0 15 0;
#X connect 54 0 2 0;
#X connect 55 0 2 0;
