#N canvas 688 458 1236 652 12;
#X obj 395 512 dac~;
#X floatatom 734 300 8 0 0 0 - - -;
#X obj 734 168 vsl 15 128 20 20000 1 1 empty empty empty 0 -9 0 10
-4032 -1 -1 9212 1;
#X msg 446 317 freq \$1;
#X obj 192 186 bng 30 250 50 0 empty empty empty 17 7 0 10 -262144
-1 -1;
#X obj 323 238 t b b;
#X msg 323 261 1;
#X msg 239 242 0, f 4;
#X obj 284 512 writesf~ 2;
#X msg 125 420 open -bytes 4 audiofiles/result.wav, f 13;
#X obj 125 379 bng 30 250 50 0 empty empty empty 17 7 0 10 -262144
-1 -1;
#X obj 357 390 phase_shaper~;
#X floatatom 580 273 5 1 300 0 - - -;
#X floatatom 729 523 6 0 0 0 - - -;
#X obj 730 391 vsl 15 128 0.025 40 1 0 empty empty empty 0 -9 0 10
-4032 -1 -1 0 1;
#X msg 446 292 filtercount \$1;
#X msg 757 214 120;
#X floatatom 580 521 6 0 0 0 - - -;
#X obj 580 390 vsl 15 128 0 1 0 0 empty empty empty 0 -9 0 10 -4032
-1 -1 12700 1;
#X text 186 162 Start;
#X text 234 161 Stop;
#X text 720 363 Q-Factor;
#X msg 754 412 1;
#X msg 446 340 q \$1;
#X msg 599 413 0.5;
#X floatatom 139 319 6 0 0 0 - - -;
#X obj 120 193 vsl 15 128 0 1 0 1 empty empty empty 0 -9 0 10 -4032
-1 -1 12700 1;
#X msg 148 216 0.5;
#X obj 357 461 *~;
#X obj 446 463 *~;
#X text 558 365 Dry-Wet Mix;
#X msg 446 361 mix \$1;
#X obj 362 294 readsf~ 2, f 11;
#X msg 191 274 start;
#X msg 241 272 stop;
#X msg 755 166 3000;
#X msg 755 436 0.0625;
#X msg 614 244 30;
#X msg 650 244 150;
#X msg 579 245 10;
#X msg 600 388 1;
#X msg 148 192 1;
#X msg 754 390 32;
#X msg 756 239 80;
#X msg 756 189 500;
#X msg 951 546 2;
#X obj 1034 565 random 9;
#X obj 993 566 - 5;
#X obj 951 566 pow;
#X obj 322 215 metro 14769;
#X obj 948 413 tgl 20 0 empty empty empty 17 7 0 10 -262144 -1 -1 1
1;
#X obj 1108 508 /;
#X msg 1108 489 1 \$1;
#X msg 1028 410 1;
#X msg 1103 409 4;
#X obj 1101 559 bng 25 250 50 0 empty empty empty 17 7 0 10 -262144
-1 -1;
#X msg 1064 409 2;
#X obj 983 319 pow;
#X obj 947 319 *;
#X msg 947 299 4;
#X obj 984 527 metro 1 130 permin;
#X obj 1016 318 random 9;
#X obj 972 239 tgl 20 0 empty empty empty 17 7 0 10 -262144 -1 -1 1
1;
#X obj 1139 259 /;
#X msg 1139 241 1 \$1;
#X msg 1017 169 1;
#X msg 1084 168 4;
#X obj 1084 312 bng 25 250 50 0 empty empty empty 17 7 0 10 -262144
-1 -1;
#X msg 1051 168 2;
#X obj 1016 278 metro 1 130 permin;
#X msg 983 299 2;
#X obj 881 169 vsl 15 128 500 10000 1 1 empty empty empty 0 -9 0 10
-4032 -1 -1 5400 1;
#X obj 881 319 +;
#X text 114 359 Arm Record;
#X text 201 73 PLAYBACK;
#X obj 238 186 bng 30 250 50 0 empty empty empty 17 7 0 10 -262144
-1 -1;
#X msg 600 440 0;
#X msg 149 241 0;
#X text 679 76 PARAMETERS;
#X text 110 164 Gain;
#X text 559 218 Allpass Filter Count;
#X text 618 271 <--try me;
#X text 908 109 Frequency Modulation;
#X text 962 217 On/Off;
#X text 829 142 Base Frequency;
#X floatatom 881 300 8 0 0 0 - - -;
#X text 1020 144 Beat Divisor;
#X text 906 357 Q-Factor Modulation;
#X text 933 389 On/Off;
#X text 1032 387 Beat Divisor;
#X text 725 142 Frequency;
#X msg 369 239 open audiofiles/edm_instruments_48kHz.wav, f 18;
#X obj 882 415 vsl 15 128 0.02 2 1 1 empty empty empty 0 -9 0 10 -4032
-1 -1 1900 1;
#X floatatom 881 546 8 0 0 0 - - -;
#X obj 881 564 *;
#X text 860 389 Strength;
#X text 406 207 This is a 48kHz audiofile!, f 17;
#X connect 1 0 3 0;
#X connect 2 0 1 0;
#X connect 3 0 11 0;
#X connect 4 0 33 0;
#X connect 4 0 49 0;
#X connect 5 0 6 0;
#X connect 5 1 91 0;
#X connect 6 0 32 0;
#X connect 7 0 32 0;
#X connect 7 0 34 0;
#X connect 7 0 49 0;
#X connect 9 0 8 0;
#X connect 10 0 9 0;
#X connect 11 0 28 0;
#X connect 11 1 29 0;
#X connect 12 0 15 0;
#X connect 13 0 23 0;
#X connect 14 0 13 0;
#X connect 15 0 11 0;
#X connect 16 0 2 0;
#X connect 17 0 31 0;
#X connect 18 0 17 0;
#X connect 22 0 14 0;
#X connect 23 0 11 0;
#X connect 24 0 18 0;
#X connect 25 0 29 1;
#X connect 25 0 28 1;
#X connect 26 0 25 0;
#X connect 27 0 26 0;
#X connect 28 0 0 0;
#X connect 28 0 8 0;
#X connect 29 0 0 1;
#X connect 29 0 8 1;
#X connect 31 0 11 0;
#X connect 32 0 11 0;
#X connect 32 1 11 1;
#X connect 33 0 8 0;
#X connect 34 0 8 0;
#X connect 35 0 2 0;
#X connect 36 0 14 0;
#X connect 37 0 12 0;
#X connect 38 0 12 0;
#X connect 39 0 12 0;
#X connect 40 0 18 0;
#X connect 41 0 26 0;
#X connect 42 0 14 0;
#X connect 43 0 2 0;
#X connect 44 0 2 0;
#X connect 45 0 48 0;
#X connect 46 0 47 0;
#X connect 47 0 48 1;
#X connect 48 0 94 1;
#X connect 49 0 5 0;
#X connect 50 0 60 0;
#X connect 51 0 60 1;
#X connect 52 0 51 0;
#X connect 53 0 52 0;
#X connect 54 0 52 0;
#X connect 56 0 52 0;
#X connect 57 0 58 1;
#X connect 58 0 72 1;
#X connect 59 0 58 0;
#X connect 60 0 46 0;
#X connect 60 0 55 0;
#X connect 60 0 45 0;
#X connect 60 0 93 0;
#X connect 61 0 57 1;
#X connect 62 0 69 0;
#X connect 63 0 69 1;
#X connect 64 0 63 0;
#X connect 65 0 64 0;
#X connect 66 0 64 0;
#X connect 68 0 64 0;
#X connect 69 0 61 0;
#X connect 69 0 67 0;
#X connect 69 0 70 0;
#X connect 69 0 59 0;
#X connect 69 0 85 0;
#X connect 70 0 57 0;
#X connect 71 0 85 0;
#X connect 72 0 1 0;
#X connect 75 0 7 0;
#X connect 76 0 18 0;
#X connect 77 0 26 0;
#X connect 85 0 72 0;
#X connect 91 0 32 0;
#X connect 92 0 93 0;
#X connect 93 0 94 0;
#X connect 94 0 13 0;
#X coords 0 0 0.5 0.5 0 0 0;
